<svg width="157" height="25" viewBox="0 0 157 25" fill="none" xmlns="http://www.w3.org/2000/svg">
<path d="M7.02678 9.072C7.02678 9.136 7.03478 9.208 7.05078 9.288C7.06678 9.352 7.08278 9.416 7.09878 9.48C7.22678 9.496 7.41878 9.504 7.67478 9.504C8.79478 9.504 9.94678 9.264 11.1308 8.784C11.4668 8.656 11.7468 8.592 11.9708 8.592C12.4188 8.592 12.7868 8.8 13.0748 9.216C13.2188 9.44 13.2908 9.632 13.2908 9.792C13.2908 9.984 13.1868 10.184 12.9788 10.392C12.3388 10.984 11.6588 11.32 10.9388 11.4C10.2988 11.48 9.33878 11.616 8.05878 11.808L6.37878 12.048C6.12278 12.608 5.99478 13.152 5.99478 13.68C5.99478 14.448 6.25878 15.088 6.78678 15.6C7.33078 16.096 8.06678 16.36 8.99478 16.392C9.93878 16.408 11.1468 16.344 12.6188 16.2L12.9788 16.176C13.3788 16.176 13.7068 16.272 13.9628 16.464C14.2348 16.64 14.4908 16.96 14.7308 17.424C14.5548 17.808 14.3068 18.064 13.9868 18.192C13.6668 18.336 13.2508 18.44 12.7388 18.504C12.2108 18.568 11.6108 18.6 10.9388 18.6C9.48278 18.6 8.17078 18.368 7.00278 17.904C4.93878 17.104 3.61878 15.72 3.04278 13.752C2.96278 13.48 2.92278 13.192 2.92278 12.888C2.92278 12.568 2.92278 12.376 2.92278 12.312C2.92278 11.768 2.65878 11.368 2.13078 11.112C1.69878 10.872 1.36278 10.64 1.12278 10.416C0.898784 10.192 0.754784 9.856 0.690784 9.408L3.40278 9.24L4.62678 5.712C4.65878 5.6 4.69078 5.464 4.72278 5.304C4.77078 5.128 4.81878 4.992 4.86678 4.896C5.01078 4.576 5.08278 4.312 5.08278 4.104C5.08278 3.784 4.93078 3.504 4.62678 3.264C4.51478 3.184 4.41878 3.04 4.33878 2.832C4.27478 2.608 4.21078 2.432 4.14678 2.304L4.67478 2.136C4.93078 2.072 5.11478 2.016 5.22678 1.968C5.29078 1.936 5.42678 1.88 5.63478 1.8C5.84278 1.704 5.96278 1.6 5.99478 1.488C6.10678 1.216 6.24278 1.032 6.40278 0.935999C6.57878 0.84 6.78678 0.792 7.02678 0.792C7.18678 0.792 7.42678 0.808 7.74678 0.839999C7.84278 0.839999 7.93878 0.863999 8.03478 0.912C8.14678 0.943999 8.23478 0.991999 8.29878 1.056C8.66678 1.44 9.07478 1.696 9.52278 1.824C9.97078 1.952 10.4988 2.016 11.1068 2.016H12.1388H14.1548C15.5148 2.016 16.5308 2.032 17.2028 2.064C17.5548 2.08 18.0028 2.232 18.5468 2.52C18.6428 2.568 18.7148 2.664 18.7628 2.808C18.8268 2.936 18.8588 3.064 18.8588 3.192C18.8588 3.256 18.8028 3.336 18.6908 3.432C18.5788 3.512 18.4748 3.568 18.3788 3.6C17.2908 3.888 16.4668 4.056 15.9068 4.104C15.0428 4.184 13.7468 4.288 12.0188 4.416C11.6188 4.432 10.9788 4.472 10.0988 4.536C10.0348 4.536 9.92278 4.52 9.76278 4.488C9.60278 4.44 9.48278 4.416 9.40278 4.416C8.81078 4.416 8.43478 4.664 8.27478 5.16C7.84278 6.44 7.43478 7.712 7.05078 8.976L7.02678 9.072ZM22.2962 7.344C23.0322 7.344 23.6322 7.56 24.0962 7.992C24.5762 8.408 24.9042 8.968 25.0802 9.672C25.1762 10.056 25.2082 10.488 25.1762 10.968C25.1602 11.24 25.1442 11.624 25.1282 12.12C25.1122 12.536 25.0562 13.152 24.9602 13.968C24.8642 14.768 24.8082 15.368 24.7922 15.768C24.7762 16.056 24.7682 16.48 24.7682 17.04L24.7922 18.984C24.4882 19.112 24.2162 19.176 23.9762 19.176C23.7362 19.176 23.4882 19.096 23.2322 18.936C23.0562 18.808 22.9362 18.728 22.8722 18.696C22.8242 18.664 22.7522 18.528 22.6562 18.288L22.4642 17.832L22.3442 17.28C21.4482 17.472 20.9202 17.584 20.7602 17.616C20.5362 17.632 20.3602 17.64 20.2322 17.64C19.6402 17.64 19.0642 17.496 18.5042 17.208C17.9602 16.92 17.5202 16.52 17.1842 16.008C16.8642 15.496 16.6962 14.944 16.6802 14.352C16.6642 13.792 16.8642 13.344 17.2802 13.008C18.1602 12.304 19.0162 11.952 19.8482 11.952C20.2642 11.952 20.7042 12.048 21.1682 12.24C21.4082 12.336 21.9202 12.552 22.7042 12.888L22.8002 12.216C22.8962 11.64 22.9442 11.176 22.9442 10.824C22.9442 10.296 22.8242 9.8 22.5842 9.336C22.3442 9.256 22.1682 9.232 22.0562 9.264C21.6402 9.328 21.2242 9.416 20.8082 9.528C20.3922 9.624 19.8242 9.672 19.1042 9.672C18.9122 9.672 18.7202 9.6 18.5282 9.456C18.3362 9.296 18.2482 9.12 18.2642 8.928C18.3122 8.672 18.4562 8.384 18.6962 8.064C18.8402 7.888 19.0402 7.784 19.2962 7.752C19.6002 7.704 19.8482 7.672 20.0402 7.656C21.0322 7.448 21.7842 7.344 22.2962 7.344ZM20.2562 15.672C20.6402 15.56 20.9602 15.432 21.2162 15.288C21.4722 15.128 21.6962 14.896 21.8882 14.592C21.3122 14.144 20.8722 13.832 20.5682 13.656C20.2642 13.48 19.9682 13.392 19.6802 13.392C19.5682 13.392 19.4322 13.416 19.2722 13.464C19.1122 13.512 18.9922 13.584 18.9122 13.68C18.7682 13.856 18.6962 14.104 18.6962 14.424C18.6962 14.712 18.7522 14.96 18.8642 15.168C18.9922 15.344 19.1522 15.48 19.3442 15.576C19.5362 15.672 19.7362 15.72 19.9442 15.72C20.0082 15.72 20.1122 15.704 20.2562 15.672ZM28.2507 7.824C28.2987 7.984 28.3067 8.232 28.2747 8.568L27.9867 11.4C28.0667 11.336 28.1867 11.112 28.3467 10.728C28.5067 10.328 28.6587 10.008 28.8027 9.768C28.9467 9.512 29.0587 9.344 29.1387 9.264C29.8907 8.544 30.7387 8.112 31.6827 7.968C32.6267 7.824 33.6667 7.76 34.8027 7.776C34.9147 7.776 35.0347 7.824 35.1627 7.92C35.3067 8 35.3787 8.072 35.3787 8.136C35.3787 8.184 35.3307 8.272 35.2347 8.4C35.1387 8.512 35.0507 8.584 34.9707 8.616C34.0107 8.936 33.1627 9.304 32.4267 9.72C31.7067 10.136 31.0827 10.68 30.5547 11.352C29.3067 12.936 28.5867 14.568 28.3947 16.248C28.3467 16.696 28.2107 17 27.9867 17.16C27.7627 17.304 27.4507 17.376 27.0507 17.376C26.6027 17.376 26.2027 17.184 25.8507 16.8C25.4987 16.416 25.3227 15.992 25.3227 15.528C25.3387 13.832 25.3467 11.288 25.3467 7.896C25.3467 7.432 25.4507 7.112 25.6587 6.936C25.8667 6.744 26.2427 6.648 26.7867 6.648C27.1867 6.648 27.5227 6.76 27.7947 6.984C28.0827 7.208 28.2347 7.488 28.2507 7.824ZM39.1641 5.976C39.2441 5.944 39.4201 5.92 39.6921 5.904C39.9801 5.872 40.2361 5.856 40.4601 5.856C40.9081 5.856 41.3161 6.136 41.6841 6.696L41.3721 6.936C41.0041 7.208 40.4761 7.416 39.7881 7.56C39.1801 7.864 38.7241 8.12 38.4201 8.328C38.1321 8.536 37.9161 8.768 37.7721 9.024C37.6441 9.28 37.5801 9.608 37.5801 10.008C37.5801 10.2 37.6281 10.696 37.7241 11.496L37.8441 12.504C37.9721 13.736 38.0841 14.64 38.1801 15.216C38.2121 15.424 38.2761 15.672 38.3721 15.96C38.4841 16.232 38.5961 16.392 38.7081 16.44C38.8201 16.488 39.0441 16.408 39.3801 16.2C40.0201 15.432 40.4361 14.896 40.6281 14.592C40.6761 14.512 40.7561 14.376 40.8681 14.184C40.9801 13.992 41.0921 13.848 41.2041 13.752C41.3161 13.64 41.4521 13.584 41.6121 13.584C41.6441 13.584 41.7241 13.6 41.8521 13.632C42.1081 13.712 42.3081 13.832 42.4521 13.992C42.6121 14.152 42.6921 14.384 42.6921 14.688C42.6921 14.832 42.6841 14.936 42.6681 15C42.5721 15.64 42.3481 16.216 41.9961 16.728C41.6441 17.24 41.1801 17.744 40.6041 18.24C40.3801 18.448 40.0121 18.552 39.5001 18.552C38.9401 18.552 38.3881 18.424 37.8441 18.168C37.3001 17.928 36.9321 17.608 36.7401 17.208C36.2441 16.136 35.7801 14.768 35.3481 13.104C35.2361 12.64 35.1481 11.904 35.0841 10.896L35.0121 10.008C34.9801 9.64 34.9801 9.36 35.0121 9.168C35.0441 8.96 34.7321 8.832 34.0761 8.784C33.8361 8.768 33.7161 8.608 33.7161 8.304C33.8761 7.792 34.1241 7.488 34.4601 7.392C34.7801 7.296 34.9801 7.096 35.0601 6.792C35.1401 6.472 35.2041 6.144 35.2521 5.808C35.3961 4.768 35.4281 3.608 35.3481 2.328C35.3161 1.72 35.5001 1.368 35.9001 1.272L36.1161 1.296C36.1961 1.312 36.3801 1.344 36.6681 1.392C36.9561 1.424 37.2121 1.496 37.4361 1.608C37.9961 1.912 38.2761 2.448 38.2761 3.216C38.2761 3.536 38.2121 3.952 38.0841 4.464C38.0681 4.544 38.0441 4.616 38.0121 4.68C37.9801 4.744 37.9561 4.816 37.9401 4.896C37.8921 5.136 37.8681 5.336 37.8681 5.496C37.7241 5.976 37.8361 6.216 38.2041 6.216C38.3321 6.216 38.6521 6.136 39.1641 5.976ZM45.1553 5.184C45.1713 6.736 45.2113 8.016 45.2753 9.024C45.3553 10.016 45.5313 11.072 45.8033 12.192C46.4753 11.952 47.0913 11.832 47.6513 11.832C48.5953 11.832 49.4113 12.112 50.0993 12.672C50.7873 13.232 51.2513 13.928 51.4913 14.76C51.6833 15.368 51.7793 16.184 51.7793 17.208L51.7553 19.08C51.7553 19.192 51.6913 19.32 51.5633 19.464C51.4353 19.608 51.3073 19.696 51.1793 19.728C51.1313 19.744 51.0593 19.752 50.9633 19.752C50.5953 19.752 50.2113 19.568 49.8113 19.2C49.4113 18.848 49.2033 18.496 49.1873 18.144L49.1393 16.896C49.1393 16.608 49.1233 16.192 49.0913 15.648C49.0593 15.088 48.9953 14.688 48.8993 14.448C48.8033 14.176 48.6833 13.968 48.5393 13.824C48.3953 13.68 48.2353 13.608 48.0593 13.608C47.9313 13.608 47.7873 13.664 47.6273 13.776C47.4833 13.888 47.3553 14.04 47.2433 14.232C46.9073 14.76 46.4673 15.8 45.9233 17.352C45.7473 17.912 45.4353 18.192 44.9873 18.192C44.9393 18.192 44.8353 18.176 44.6753 18.144C44.5793 18.112 44.3953 18.064 44.1233 18C43.8513 17.92 43.6353 17.8 43.4753 17.64C43.3313 17.48 43.2593 17.248 43.2593 16.944C43.2593 13.92 43.0753 11.416 42.7073 9.432C42.5313 8.44 42.4433 7.296 42.4433 6V4.392V3.552C42.4433 3.328 42.5633 3.136 42.8033 2.976C43.0433 2.816 43.3153 2.736 43.6193 2.736C43.8753 2.736 44.0913 2.792 44.2673 2.904C44.5873 3.096 44.8113 3.336 44.9393 3.624C45.0833 3.912 45.1553 4.272 45.1553 4.704V5.184ZM55.0932 14.256C54.9332 14.352 54.7012 14.4 54.3972 14.4C54.2852 14.4 54.1492 14.392 53.9892 14.376C53.8292 14.36 53.6932 14.36 53.5812 14.376C53.7092 14.904 54.0132 15.336 54.4932 15.672C54.9732 15.992 55.5092 16.152 56.1012 16.152C56.6132 16.152 57.0692 16.04 57.4692 15.816C58.0612 15.512 58.5732 15.152 59.0052 14.736C59.3092 14.432 59.5972 14.28 59.8692 14.28C60.0452 14.28 60.1972 14.368 60.3252 14.544C60.4532 14.752 60.5172 15.008 60.5172 15.312C60.5172 15.632 60.4532 15.88 60.3252 16.056C59.9092 16.696 59.3652 17.136 58.6932 17.376C58.0372 17.616 57.2692 17.736 56.3892 17.736C55.4772 17.736 54.5972 17.536 53.7492 17.136C52.9012 16.736 52.1732 16.192 51.5652 15.504C50.9732 14.8 50.5812 14.024 50.3892 13.176C50.2612 12.68 50.1972 12.192 50.1972 11.712C50.1972 10.96 50.4052 10.352 50.8212 9.888C51.2532 9.424 51.9412 8.984 52.8852 8.568C53.7492 8.2 54.5492 8.016 55.2852 8.016C55.8132 8.016 56.3252 8.096 56.8212 8.256C58.3572 8.736 59.1252 9.392 59.1252 10.224C59.1252 10.752 58.8132 11.392 58.1892 12.144C57.8852 12.496 57.5252 12.808 57.1092 13.08C56.6932 13.352 56.2852 13.6 55.8852 13.824C55.5012 14.032 55.2372 14.176 55.0932 14.256ZM56.1012 9.816C56.0852 9.736 56.0212 9.672 55.9092 9.624C55.8132 9.56 55.7572 9.52 55.7412 9.504C55.3092 9.472 54.8692 9.6 54.4212 9.888C53.9732 10.16 53.5972 10.512 53.2932 10.944C53.0052 11.376 52.8612 11.792 52.8612 12.192L52.8852 12.384C52.9012 12.448 52.9812 12.528 53.1252 12.624C53.2852 12.72 53.3812 12.752 53.4132 12.72C54.5492 11.872 55.4052 11.192 55.9812 10.68C56.0772 10.584 56.1252 10.408 56.1252 10.152C56.1252 9.992 56.1172 9.88 56.1012 9.816ZM63.8237 10.104C63.8237 10.136 63.8397 10.184 63.8717 10.248C63.9197 10.312 63.9597 10.368 63.9917 10.416L64.7597 9.312C65.0477 8.896 65.4077 8.648 65.8397 8.568C66.2877 8.472 66.6637 8.544 66.9677 8.784C67.7197 9.376 68.2397 10.04 68.5277 10.776L68.9837 11.928L69.7997 16.2C69.8797 16.648 70.0317 17.144 70.2557 17.688C70.3837 18.04 70.4717 18.304 70.5197 18.48L70.7357 19.296C70.3197 19.424 69.9757 19.488 69.7037 19.488C68.7117 19.488 68.1197 19.04 67.9277 18.144C67.7517 17.248 67.5437 16.184 67.3037 14.952L67.0637 13.704C66.6797 12.536 66.2637 11.96 65.8157 11.976C65.3677 11.976 65.0397 12.152 64.8317 12.504C64.5277 13 64.3517 13.536 64.3037 14.112C64.2717 14.672 64.2557 15.416 64.2557 16.344C64.1757 16.696 64.0557 16.944 63.8957 17.088C63.7357 17.216 63.4877 17.28 63.1517 17.28C62.3837 17.28 61.9757 16.904 61.9277 16.152C61.8637 15.256 61.8317 14.248 61.8317 13.128C61.8317 12.808 61.7997 12.528 61.7357 12.288C61.6717 12.048 61.5277 11.928 61.3037 11.928C61.2077 11.928 61.0797 11.936 60.9197 11.952C60.7757 11.968 60.6637 11.968 60.5837 11.952C60.2957 11.888 60.0477 11.832 59.8397 11.784C59.6317 11.736 59.4397 11.664 59.2637 11.568C59.1037 11.456 59.0397 11.272 59.0717 11.016C59.1197 10.744 59.2077 10.488 59.3357 10.248C59.4477 10.088 59.5677 9.936 59.6957 9.792C59.8397 9.632 60.0237 9.456 60.2477 9.264C60.8397 8.752 61.4797 8.488 62.1677 8.472C62.6797 8.456 63.0477 8.616 63.2717 8.952C63.5117 9.288 63.6957 9.672 63.8237 10.104ZM78.8095 8.832L79.6735 8.712C80.2975 8.616 80.7215 8.56 80.9455 8.544L81.5215 8.496C81.7135 8.48 81.9535 8.464 82.2415 8.448C82.5295 8.432 82.8575 8.424 83.2255 8.424C83.5775 8.424 83.8335 8.432 83.9935 8.448C84.5535 8.496 84.9615 8.68 85.2175 9C85.4895 9.32 85.6495 9.8 85.6975 10.44C85.6335 10.44 85.5375 10.432 85.4095 10.416C85.2815 10.4 85.1775 10.384 85.0975 10.368C84.6495 10.288 84.2415 10.248 83.8735 10.248C83.4415 10.248 83.0255 10.304 82.6255 10.416C81.6015 10.736 80.2895 11.072 78.6895 11.424C78.3855 11.504 78.1455 11.632 77.9695 11.808C77.8095 11.968 77.7055 12.2 77.6575 12.504C77.5615 13.112 77.4415 13.72 77.2975 14.328C77.1855 14.888 77.0975 15.352 77.0335 15.72C77.0175 15.848 77.0095 16.016 77.0095 16.224C77.0095 16.416 77.0095 16.552 77.0095 16.632C77.2655 16.68 77.5295 16.704 77.8015 16.704C78.3295 16.704 78.9775 16.6 79.7455 16.392C81.1535 16.056 82.5695 15.696 83.9935 15.312L86.6335 14.64C87.4655 14.432 88.1215 14.248 88.6015 14.088C89.6415 13.8 90.3935 13.6 90.8575 13.488C91.0495 13.456 91.1935 13.44 91.2895 13.44C91.6895 13.44 91.9535 13.6 92.0815 13.92C92.1295 14.032 92.1535 14.144 92.1535 14.256C92.1535 14.448 92.0895 14.632 91.9615 14.808C91.8335 14.984 91.6575 15.128 91.4335 15.24C91.1295 15.368 90.7135 15.504 90.1855 15.648C88.6495 16.096 87.2895 16.52 86.1055 16.92C83.8015 17.656 82.0895 18.176 80.9695 18.48C80.5215 18.608 79.8495 18.72 78.9535 18.816L78.0655 18.936C77.5215 19 77.0335 18.816 76.6015 18.384L76.1695 17.952C75.6415 17.456 75.2335 17.024 74.9455 16.656C74.7375 16.384 74.6495 16.008 74.6815 15.528C74.7295 14.968 74.8335 14.112 74.9935 12.96L75.0895 12.192L75.1615 11.472C74.6815 11.328 74.3055 11.152 74.0335 10.944C73.7775 10.72 73.6415 10.368 73.6255 9.888C74.1375 9.824 74.5215 9.792 74.7775 9.792C75.0655 9.776 75.2975 9.704 75.4735 9.576C75.6495 9.448 75.7855 9.24 75.8815 8.952C76.0575 8.376 76.3535 7.528 76.7695 6.408C76.8975 5.992 77.0575 5.528 77.2495 5.016C77.3295 4.76 77.3855 4.44 77.4175 4.056C77.4175 3.768 77.4815 3.544 77.6095 3.384C77.7535 3.208 77.9775 3.072 78.2815 2.976C79.7375 2.528 81.6335 2.184 83.9695 1.944C84.7375 1.864 85.4975 1.84 86.2495 1.872C87.3055 1.872 88.0895 2.272 88.6015 3.072C88.7455 3.264 88.8175 3.52 88.8175 3.84C88.8175 3.984 88.8015 4.088 88.7695 4.152C88.6735 4.376 88.5295 4.568 88.3375 4.728C88.1615 4.872 87.9375 4.944 87.6655 4.944L86.7295 4.968C86.2815 5 85.9535 5.016 85.7455 5.016C85.2975 5.016 84.9935 4.936 84.8335 4.776C84.6095 4.552 84.3295 4.44 83.9935 4.44C83.8975 4.44 83.7375 4.456 83.5135 4.488L81.1375 5.04L80.1775 5.28L78.8095 8.832ZM95.2013 15.768C95.1373 15.688 95.0413 15.6 94.9133 15.504C94.7853 15.392 94.6733 15.296 94.5773 15.216L94.0013 16.008L93.2093 17.112C93.0333 17.352 92.8093 17.536 92.5373 17.664C92.2813 17.776 92.0093 17.832 91.7213 17.832C91.3533 17.832 91.0173 17.744 90.7133 17.568C90.4093 17.376 90.1853 17.104 90.0413 16.752C90.0093 16.656 89.9933 16.568 89.9933 16.488C89.9933 16.216 90.0653 15.976 90.2093 15.768C90.9453 14.776 91.6573 13.912 92.3453 13.176C92.4733 13.048 92.6013 12.92 92.7293 12.792C92.8733 12.648 92.9453 12.552 92.9453 12.504C92.9453 12.472 92.8813 12.392 92.7533 12.264C92.6413 12.12 92.5293 11.952 92.4173 11.76C92.3373 11.616 92.1373 11.352 91.8173 10.968L91.2893 10.248C91.1933 10.104 91.1133 9.92 91.0493 9.696C90.9853 9.472 90.9373 9.312 90.9053 9.216C91.0173 9.184 91.1853 9.12 91.4093 9.024C91.8733 8.816 92.2013 8.744 92.3933 8.808C92.8413 8.984 93.2253 9.176 93.5453 9.384C93.8813 9.576 94.1053 9.824 94.2173 10.128C94.2653 10.256 94.3213 10.408 94.3853 10.584C94.4493 10.744 94.5053 10.856 94.5533 10.92C94.6013 10.984 94.6493 11.016 94.6973 11.016C94.7613 11.016 94.8653 10.944 95.0093 10.8C95.1693 10.656 95.3613 10.464 95.5853 10.224C95.7613 10.048 95.9693 9.888 96.2093 9.744C96.4493 9.584 96.6893 9.44 96.9293 9.312C97.1693 9.184 97.4013 9.12 97.6253 9.12C97.8813 9.12 98.1213 9.192 98.3453 9.336C98.5693 9.48 98.8013 9.688 99.0413 9.96C99.0733 10.024 99.0893 10.088 99.0893 10.152C99.0893 10.248 99.0653 10.352 99.0173 10.464C98.9853 10.576 98.9453 10.664 98.8973 10.728C98.4973 11.192 97.9933 11.672 97.3853 12.168C97.3213 12.216 97.2493 12.272 97.1693 12.336C97.1053 12.4 97.0333 12.464 96.9533 12.528C96.7133 12.72 96.5213 12.888 96.3773 13.032C96.2333 13.16 96.1613 13.272 96.1613 13.368C96.1613 13.48 96.2813 13.68 96.5213 13.968L97.0973 14.736C97.5293 15.424 97.8253 15.976 97.9853 16.392C98.0333 16.504 98.0573 16.648 98.0573 16.824C98.0573 16.952 98.0493 17.072 98.0333 17.184C98.0173 17.296 98.0093 17.416 98.0093 17.544C97.7853 17.512 97.6013 17.496 97.4573 17.496C97.4093 17.496 97.2733 17.48 97.0493 17.448C96.8253 17.416 96.6333 17.352 96.4733 17.256C96.2653 17.112 96.0733 16.928 95.8973 16.704C95.7373 16.464 95.6413 16.328 95.6093 16.296L95.2013 15.768ZM98.8617 21.84C98.8617 17.504 98.8537 14.256 98.8377 12.096C98.8377 11.68 98.9017 11.36 99.0297 11.136C99.1737 10.896 99.4377 10.704 99.8217 10.56C100.478 10.32 101.31 9.976 102.318 9.528L103.566 8.976C103.774 8.896 104.062 8.872 104.43 8.904C105.374 8.968 106.054 9.208 106.47 9.624C106.886 10.024 107.094 10.6 107.094 11.352C107.094 11.768 107.014 12.312 106.854 12.984C106.694 13.64 106.318 14.496 105.726 15.552C105.198 16.512 104.454 16.992 103.494 16.992C103.158 16.992 102.822 16.936 102.486 16.824C102.262 16.76 102.118 16.728 102.054 16.728C101.718 16.728 101.574 17.008 101.622 17.568C101.67 18.752 101.694 19.912 101.694 21.048C101.71 21.32 101.718 21.712 101.718 22.224C101.718 22.528 101.71 22.76 101.694 22.92L101.67 23.592C101.67 24.008 101.542 24.344 101.286 24.6C101.03 24.856 100.694 24.984 100.278 24.984C99.9097 24.984 99.5897 24.848 99.3177 24.576C99.0457 24.304 98.9097 23.984 98.9097 23.616V21.84H98.8617ZM101.526 12.6C101.446 12.664 101.382 12.776 101.334 12.936C101.302 13.08 101.278 13.232 101.262 13.392C101.246 13.536 101.222 13.672 101.19 13.8C101.206 13.816 101.222 13.824 101.238 13.824C101.27 13.824 101.294 13.832 101.31 13.848C101.31 13.944 101.318 14.112 101.334 14.352C101.35 14.592 101.374 14.808 101.406 15C101.454 15.224 101.534 15.4 101.646 15.528C101.758 15.64 101.886 15.696 102.03 15.696C102.222 15.696 102.414 15.608 102.606 15.432C103.662 14.536 104.27 13.232 104.43 11.52C104.43 11.44 104.358 11.32 104.214 11.16C104.07 11 103.99 10.928 103.974 10.944C103.558 11.2 103.126 11.472 102.678 11.76C102.23 12.032 101.846 12.312 101.526 12.6ZM110.03 7.824C110.078 7.984 110.086 8.232 110.054 8.568L109.766 11.4C109.846 11.336 109.966 11.112 110.126 10.728C110.286 10.328 110.438 10.008 110.582 9.768C110.726 9.512 110.838 9.344 110.918 9.264C111.67 8.544 112.518 8.112 113.462 7.968C114.406 7.824 115.446 7.76 116.582 7.776C116.694 7.776 116.814 7.824 116.942 7.92C117.086 8 117.158 8.072 117.158 8.136C117.158 8.184 117.11 8.272 117.014 8.4C116.918 8.512 116.83 8.584 116.75 8.616C115.79 8.936 114.942 9.304 114.206 9.72C113.486 10.136 112.862 10.68 112.334 11.352C111.086 12.936 110.366 14.568 110.174 16.248C110.126 16.696 109.99 17 109.766 17.16C109.542 17.304 109.23 17.376 108.83 17.376C108.382 17.376 107.982 17.184 107.63 16.8C107.278 16.416 107.102 15.992 107.102 15.528C107.118 13.832 107.126 11.288 107.126 7.896C107.126 7.432 107.23 7.112 107.438 6.936C107.646 6.744 108.022 6.648 108.566 6.648C108.966 6.648 109.302 6.76 109.574 6.984C109.862 7.208 110.014 7.488 110.03 7.824ZM119.137 14.256C118.977 14.352 118.745 14.4 118.441 14.4C118.329 14.4 118.193 14.392 118.033 14.376C117.873 14.36 117.737 14.36 117.625 14.376C117.753 14.904 118.057 15.336 118.537 15.672C119.017 15.992 119.553 16.152 120.145 16.152C120.657 16.152 121.113 16.04 121.513 15.816C122.105 15.512 122.617 15.152 123.049 14.736C123.353 14.432 123.641 14.28 123.913 14.28C124.089 14.28 124.241 14.368 124.369 14.544C124.497 14.752 124.561 15.008 124.561 15.312C124.561 15.632 124.497 15.88 124.369 16.056C123.953 16.696 123.409 17.136 122.737 17.376C122.081 17.616 121.313 17.736 120.433 17.736C119.521 17.736 118.641 17.536 117.793 17.136C116.945 16.736 116.217 16.192 115.609 15.504C115.017 14.8 114.625 14.024 114.433 13.176C114.305 12.68 114.241 12.192 114.241 11.712C114.241 10.96 114.449 10.352 114.865 9.888C115.297 9.424 115.985 8.984 116.929 8.568C117.793 8.2 118.593 8.016 119.329 8.016C119.857 8.016 120.369 8.096 120.865 8.256C122.401 8.736 123.169 9.392 123.169 10.224C123.169 10.752 122.857 11.392 122.233 12.144C121.929 12.496 121.569 12.808 121.153 13.08C120.737 13.352 120.329 13.6 119.929 13.824C119.545 14.032 119.281 14.176 119.137 14.256ZM120.145 9.816C120.129 9.736 120.065 9.672 119.953 9.624C119.857 9.56 119.801 9.52 119.785 9.504C119.353 9.472 118.913 9.6 118.465 9.888C118.017 10.16 117.641 10.512 117.337 10.944C117.049 11.376 116.905 11.792 116.905 12.192L116.929 12.384C116.945 12.448 117.025 12.528 117.169 12.624C117.329 12.72 117.425 12.752 117.457 12.72C118.593 11.872 119.449 11.192 120.025 10.68C120.121 10.584 120.169 10.408 120.169 10.152C120.169 9.992 120.161 9.88 120.145 9.816ZM128.251 15.168C128.059 15.952 127.739 16.56 127.291 16.992C126.843 17.424 126.315 17.64 125.707 17.64C124.923 17.64 124.139 17.304 123.355 16.632C123.963 16.312 124.347 16.12 124.507 16.056C124.923 15.864 125.251 15.6 125.491 15.264C125.747 14.928 125.875 14.552 125.875 14.136C125.875 13.992 125.867 13.88 125.851 13.8C125.803 13.448 125.723 13.072 125.611 12.672C125.499 12.256 125.427 11.984 125.395 11.856C125.315 11.584 125.211 11.176 125.083 10.632C124.987 10.232 124.899 9.824 124.819 9.408C124.739 8.992 124.699 8.624 124.699 8.304C124.699 7.776 124.811 7.296 125.035 6.864C125.275 6.416 125.675 5.992 126.235 5.592C126.475 5.416 126.747 5.264 127.051 5.136C127.371 5.008 127.675 4.936 127.963 4.92C128.171 4.888 128.403 4.928 128.659 5.04C128.931 5.152 129.099 5.288 129.163 5.448C129.227 5.592 129.203 5.8 129.091 6.072C128.979 6.328 128.843 6.52 128.683 6.648C127.755 7.336 127.323 8.104 127.387 8.952C127.419 9.432 127.547 10.136 127.771 11.064C127.931 11.656 128.043 12.168 128.107 12.6C128.123 12.728 128.163 12.984 128.227 13.368C128.307 13.752 128.347 14.104 128.347 14.424C128.347 14.712 128.315 14.96 128.251 15.168ZM130.982 18.528C129.638 18.528 128.782 17.952 128.414 16.8C128.542 16.8 128.71 16.808 128.918 16.824C129.142 16.824 129.326 16.84 129.47 16.872C129.694 16.904 129.854 16.92 129.95 16.92C130.67 16.92 131.27 16.6 131.75 15.96C132.086 15.496 132.254 15.024 132.254 14.544C132.254 14.224 132.174 13.912 132.014 13.608C131.662 12.984 131.23 12.296 130.718 11.544C130.382 11.048 130.078 10.576 129.806 10.128C129.486 9.616 129.326 9.048 129.326 8.424C129.326 7.848 129.486 7.344 129.806 6.912C130.142 6.464 130.63 6.184 131.27 6.072L132.038 5.928C132.87 5.768 133.494 5.688 133.91 5.688C134.598 5.688 135.206 5.848 135.734 6.168C135.846 6.248 135.958 6.392 136.07 6.6C136.198 6.792 136.294 6.944 136.358 7.056C136.246 7.104 136.086 7.184 135.878 7.296C135.686 7.392 135.518 7.448 135.374 7.464C135.15 7.496 134.814 7.512 134.366 7.512C133.934 7.512 133.606 7.52 133.382 7.536C132.87 7.584 132.462 7.76 132.158 8.064C131.87 8.352 131.726 8.704 131.726 9.12C131.726 9.44 131.822 9.768 132.014 10.104C132.446 10.824 133.046 11.648 133.814 12.576C134.39 13.296 134.678 14.04 134.678 14.808C134.678 15.224 134.582 15.664 134.39 16.128C133.734 17.728 132.598 18.528 130.982 18.528ZM136.786 6.336C135.842 6.432 135.066 6.048 134.458 5.184C134.954 4.816 135.442 4.632 135.922 4.632C136.482 4.632 136.946 4.888 137.314 5.4C137.41 5.512 137.458 5.648 137.458 5.808C137.458 5.952 137.394 6.072 137.266 6.168C137.138 6.264 136.978 6.32 136.786 6.336ZM137.77 11.64C137.754 12.024 137.714 12.6 137.65 13.368L137.506 15.096C137.506 15.304 137.53 15.528 137.578 15.768C137.626 16.008 137.658 16.168 137.674 16.248C137.706 16.504 137.65 16.728 137.506 16.92C137.362 17.096 137.178 17.184 136.954 17.184C136.858 17.184 136.786 17.176 136.738 17.16C136.194 17 135.746 16.752 135.394 16.416C135.042 16.064 134.874 15.6 134.89 15.024C134.906 14.768 134.914 14.384 134.914 13.872C134.914 13.296 134.906 12.864 134.89 12.576C134.89 12.352 134.882 12.08 134.866 11.76C134.866 11.44 134.874 11.064 134.89 10.632C134.906 10.424 134.954 10.2 135.034 9.96C135.114 9.72 135.202 9.592 135.298 9.576C135.554 9.528 135.842 9.504 136.162 9.504C136.578 9.504 136.882 9.576 137.074 9.72C137.218 9.832 137.338 9.984 137.434 10.176C137.53 10.368 137.634 10.624 137.746 10.944C137.842 11.2 137.922 11.392 137.986 11.52L137.77 11.64ZM143.004 16.392C142.508 16.696 141.94 16.848 141.3 16.848C140.596 16.848 139.916 16.672 139.26 16.32C138.62 15.952 138.108 15.432 137.724 14.76C137.34 14.088 137.18 13.32 137.244 12.456L137.364 11.88C137.46 11.304 137.54 10.88 137.604 10.608C137.748 10.016 138.036 9.6 138.468 9.36C138.9 9.12 139.476 8.928 140.196 8.784C140.66 8.688 141.116 8.64 141.564 8.64C142.972 8.64 144.156 9.112 145.116 10.056C145.628 10.568 145.884 11.192 145.884 11.928C145.884 12.648 145.62 13.424 145.092 14.256C144.484 15.2 143.788 15.912 143.004 16.392ZM140.988 9.864C140.732 10.488 140.46 11.264 140.172 12.192L139.932 12.912L140.1 12.984C140.1 13.096 140.1 13.272 140.1 13.512C140.116 13.736 140.148 13.928 140.196 14.088C140.372 14.584 140.572 14.888 140.796 15C140.892 15.048 141.028 15.024 141.204 14.928C141.396 14.832 141.564 14.72 141.708 14.592C141.932 14.4 142.292 14 142.788 13.392C143.156 12.976 143.34 12.48 143.34 11.904C143.34 11.408 143.196 10.96 142.908 10.56C142.636 10.16 142.252 9.888 141.756 9.744C141.708 9.728 141.62 9.72 141.492 9.72C141.188 9.72 141.02 9.768 140.988 9.864ZM149.627 10.104C149.627 10.136 149.643 10.184 149.675 10.248C149.723 10.312 149.763 10.368 149.795 10.416L150.563 9.312C150.851 8.896 151.211 8.648 151.643 8.568C152.091 8.472 152.467 8.544 152.771 8.784C153.523 9.376 154.043 10.04 154.331 10.776L154.787 11.928L155.603 16.2C155.683 16.648 155.835 17.144 156.059 17.688C156.187 18.04 156.275 18.304 156.323 18.48L156.539 19.296C156.123 19.424 155.779 19.488 155.507 19.488C154.515 19.488 153.923 19.04 153.731 18.144C153.555 17.248 153.347 16.184 153.107 14.952L152.867 13.704C152.483 12.536 152.067 11.96 151.619 11.976C151.171 11.976 150.843 12.152 150.635 12.504C150.331 13 150.155 13.536 150.107 14.112C150.075 14.672 150.059 15.416 150.059 16.344C149.979 16.696 149.859 16.944 149.699 17.088C149.539 17.216 149.291 17.28 148.955 17.28C148.187 17.28 147.779 16.904 147.731 16.152C147.667 15.256 147.635 14.248 147.635 13.128C147.635 12.808 147.603 12.528 147.539 12.288C147.475 12.048 147.331 11.928 147.107 11.928C147.011 11.928 146.883 11.936 146.723 11.952C146.579 11.968 146.467 11.968 146.387 11.952C146.099 11.888 145.851 11.832 145.643 11.784C145.435 11.736 145.243 11.664 145.067 11.568C144.907 11.456 144.843 11.272 144.875 11.016C144.923 10.744 145.011 10.488 145.139 10.248C145.251 10.088 145.371 9.936 145.499 9.792C145.643 9.632 145.827 9.456 146.051 9.264C146.643 8.752 147.283 8.488 147.971 8.472C148.483 8.456 148.851 8.616 149.075 8.952C149.315 9.288 149.499 9.672 149.627 10.104Z" fill="black"/>
</svg>
