<svg width="235" height="37" viewBox="0 0 235 37" fill="none" xmlns="http://www.w3.org/2000/svg">
<path d="M10.304 12.608C10.304 12.704 10.316 12.812 10.34 12.932C10.364 13.028 10.388 13.124 10.412 13.22C10.604 13.244 10.892 13.256 11.276 13.256C12.956 13.256 14.684 12.896 16.46 12.176C16.964 11.984 17.384 11.888 17.72 11.888C18.392 11.888 18.944 12.2 19.376 12.824C19.592 13.16 19.7 13.448 19.7 13.688C19.7 13.976 19.544 14.276 19.232 14.588C18.272 15.476 17.252 15.98 16.172 16.1C15.212 16.22 13.772 16.424 11.852 16.712L9.332 17.072C8.948 17.912 8.756 18.728 8.756 19.52C8.756 20.672 9.152 21.632 9.944 22.4C10.76 23.144 11.864 23.54 13.256 23.588C14.672 23.612 16.484 23.516 18.692 23.3L19.232 23.264C19.832 23.264 20.324 23.408 20.708 23.696C21.116 23.96 21.5 24.44 21.86 25.136C21.596 25.712 21.224 26.096 20.744 26.288C20.264 26.504 19.64 26.66 18.872 26.756C18.08 26.852 17.18 26.9 16.172 26.9C13.988 26.9 12.02 26.552 10.268 25.856C7.172 24.656 5.192 22.58 4.328 19.628C4.208 19.22 4.148 18.788 4.148 18.332C4.148 17.852 4.148 17.564 4.148 17.468C4.148 16.652 3.752 16.052 2.96 15.668C2.312 15.308 1.808 14.96 1.448 14.624C1.112 14.288 0.896 13.784 0.8 13.112L4.868 12.86L6.704 7.568C6.752 7.4 6.8 7.196 6.848 6.956C6.92 6.692 6.992 6.488 7.064 6.344C7.28 5.864 7.388 5.468 7.388 5.156C7.388 4.676 7.16 4.256 6.704 3.896C6.536 3.776 6.392 3.56 6.272 3.248C6.176 2.912 6.08 2.648 5.984 2.456L6.776 2.204C7.16 2.108 7.436 2.024 7.604 1.952C7.7 1.904 7.904 1.82 8.216 1.7C8.528 1.556 8.708 1.4 8.756 1.232C8.924 0.823999 9.128 0.547999 9.368 0.403999C9.632 0.26 9.944 0.188 10.304 0.188C10.544 0.188 10.904 0.211999 11.384 0.259999C11.528 0.259999 11.672 0.295999 11.816 0.368C11.984 0.415999 12.116 0.487999 12.212 0.583999C12.764 1.16 13.376 1.544 14.048 1.736C14.72 1.928 15.512 2.024 16.424 2.024H17.972H20.996C23.036 2.024 24.56 2.048 25.568 2.096C26.096 2.12 26.768 2.348 27.584 2.78C27.728 2.852 27.836 2.996 27.908 3.212C28.004 3.404 28.052 3.596 28.052 3.788C28.052 3.884 27.968 4.004 27.8 4.148C27.632 4.268 27.476 4.352 27.332 4.4C25.7 4.832 24.464 5.084 23.624 5.156C22.328 5.276 20.384 5.432 17.792 5.624C17.192 5.648 16.232 5.708 14.912 5.804C14.816 5.804 14.648 5.78 14.408 5.732C14.168 5.66 13.988 5.624 13.868 5.624C12.98 5.624 12.416 5.996 12.176 6.74C11.528 8.66 10.916 10.568 10.34 12.464L10.304 12.608ZM33.2082 10.016C34.3122 10.016 35.2122 10.34 35.9082 10.988C36.6282 11.612 37.1202 12.452 37.3842 13.508C37.5282 14.084 37.5762 14.732 37.5282 15.452C37.5042 15.86 37.4802 16.436 37.4562 17.18C37.4322 17.804 37.3482 18.728 37.2042 19.952C37.0602 21.152 36.9762 22.052 36.9522 22.652C36.9282 23.084 36.9162 23.72 36.9162 24.56L36.9522 27.476C36.4962 27.668 36.0882 27.764 35.7282 27.764C35.3682 27.764 34.9962 27.644 34.6122 27.404C34.3482 27.212 34.1682 27.092 34.0722 27.044C34.0002 26.996 33.8922 26.792 33.7482 26.432L33.4602 25.748L33.2802 24.92C31.9362 25.208 31.1442 25.376 30.9042 25.424C30.5682 25.448 30.3042 25.46 30.1122 25.46C29.2242 25.46 28.3602 25.244 27.5202 24.812C26.7042 24.38 26.0442 23.78 25.5402 23.012C25.0602 22.244 24.8082 21.416 24.7842 20.528C24.7602 19.688 25.0602 19.016 25.6842 18.512C27.0042 17.456 28.2882 16.928 29.5362 16.928C30.1602 16.928 30.8202 17.072 31.5162 17.36C31.8762 17.504 32.6442 17.828 33.8202 18.332L33.9642 17.324C34.1082 16.46 34.1802 15.764 34.1802 15.236C34.1802 14.444 34.0002 13.7 33.6402 13.004C33.2802 12.884 33.0162 12.848 32.8482 12.896C32.2242 12.992 31.6002 13.124 30.9762 13.292C30.3522 13.436 29.5002 13.508 28.4202 13.508C28.1322 13.508 27.8442 13.4 27.5562 13.184C27.2682 12.944 27.1362 12.68 27.1602 12.392C27.2322 12.008 27.4482 11.576 27.8082 11.096C28.0242 10.832 28.3242 10.676 28.7082 10.628C29.1642 10.556 29.5362 10.508 29.8242 10.484C31.3122 10.172 32.4402 10.016 33.2082 10.016ZM30.1482 22.508C30.7242 22.34 31.2042 22.148 31.5882 21.932C31.9722 21.692 32.3082 21.344 32.5962 20.888C31.7322 20.216 31.0722 19.748 30.6162 19.484C30.1602 19.22 29.7162 19.088 29.2842 19.088C29.1162 19.088 28.9122 19.124 28.6722 19.196C28.4322 19.268 28.2522 19.376 28.1322 19.52C27.9162 19.784 27.8082 20.156 27.8082 20.636C27.8082 21.068 27.8922 21.44 28.0602 21.752C28.2522 22.016 28.4922 22.22 28.7802 22.364C29.0682 22.508 29.3682 22.58 29.6802 22.58C29.7762 22.58 29.9322 22.556 30.1482 22.508ZM42.1398 10.736C42.2118 10.976 42.2238 11.348 42.1758 11.852L41.7438 16.1C41.8638 16.004 42.0438 15.668 42.2838 15.092C42.5238 14.492 42.7518 14.012 42.9678 13.652C43.1838 13.268 43.3518 13.016 43.4718 12.896C44.5998 11.816 45.8718 11.168 47.2878 10.952C48.7038 10.736 50.2638 10.64 51.9678 10.664C52.1358 10.664 52.3158 10.736 52.5078 10.88C52.7238 11 52.8318 11.108 52.8318 11.204C52.8318 11.276 52.7598 11.408 52.6158 11.6C52.4718 11.768 52.3398 11.876 52.2198 11.924C50.7798 12.404 49.5078 12.956 48.4038 13.58C47.3238 14.204 46.3878 15.02 45.5958 16.028C43.7238 18.404 42.6438 20.852 42.3558 23.372C42.2838 24.044 42.0798 24.5 41.7438 24.74C41.4078 24.956 40.9398 25.064 40.3398 25.064C39.6678 25.064 39.0678 24.776 38.5398 24.2C38.0118 23.624 37.7478 22.988 37.7478 22.292C37.7718 19.748 37.7838 15.932 37.7838 10.844C37.7838 10.148 37.9398 9.668 38.2518 9.404C38.5638 9.116 39.1278 8.972 39.9438 8.972C40.5438 8.972 41.0478 9.14 41.4558 9.476C41.8878 9.812 42.1158 10.232 42.1398 10.736ZM58.51 7.964C58.63 7.916 58.894 7.88 59.302 7.856C59.734 7.808 60.118 7.784 60.454 7.784C61.126 7.784 61.738 8.204 62.29 9.044L61.822 9.404C61.27 9.812 60.478 10.124 59.446 10.34C58.534 10.796 57.85 11.18 57.394 11.492C56.962 11.804 56.638 12.152 56.422 12.536C56.23 12.92 56.134 13.412 56.134 14.012C56.134 14.3 56.206 15.044 56.35 16.244L56.53 17.756C56.722 19.604 56.89 20.96 57.034 21.824C57.082 22.136 57.178 22.508 57.322 22.94C57.49 23.348 57.658 23.588 57.826 23.66C57.994 23.732 58.33 23.612 58.834 23.3C59.794 22.148 60.418 21.344 60.706 20.888C60.778 20.768 60.898 20.564 61.066 20.276C61.234 19.988 61.402 19.772 61.57 19.628C61.738 19.46 61.942 19.376 62.182 19.376C62.23 19.376 62.35 19.4 62.542 19.448C62.926 19.568 63.226 19.748 63.442 19.988C63.682 20.228 63.802 20.576 63.802 21.032C63.802 21.248 63.79 21.404 63.766 21.5C63.622 22.46 63.286 23.324 62.758 24.092C62.23 24.86 61.534 25.616 60.67 26.36C60.334 26.672 59.782 26.828 59.014 26.828C58.174 26.828 57.346 26.636 56.53 26.252C55.714 25.892 55.162 25.412 54.874 24.812C54.13 23.204 53.434 21.152 52.786 18.656C52.618 17.96 52.486 16.856 52.39 15.344L52.282 14.012C52.234 13.46 52.234 13.04 52.282 12.752C52.33 12.44 51.862 12.248 50.878 12.176C50.518 12.152 50.338 11.912 50.338 11.456C50.578 10.688 50.95 10.232 51.454 10.088C51.934 9.944 52.234 9.644 52.354 9.188C52.474 8.708 52.57 8.216 52.642 7.712C52.858 6.152 52.906 4.412 52.786 2.492C52.738 1.58 53.014 1.052 53.614 0.907999L53.938 0.943999C54.058 0.967998 54.334 1.016 54.766 1.088C55.198 1.136 55.582 1.244 55.918 1.412C56.758 1.868 57.178 2.672 57.178 3.824C57.178 4.304 57.082 4.928 56.89 5.696C56.866 5.816 56.83 5.924 56.782 6.02C56.734 6.116 56.698 6.224 56.674 6.344C56.602 6.704 56.566 7.004 56.566 7.244C56.35 7.964 56.518 8.324 57.07 8.324C57.262 8.324 57.742 8.204 58.51 7.964ZM67.4967 6.776C67.5207 9.104 67.5808 11.024 67.6768 12.536C67.7968 14.024 68.0608 15.608 68.4688 17.288C69.4768 16.928 70.4008 16.748 71.2408 16.748C72.6568 16.748 73.8808 17.168 74.9128 18.008C75.9448 18.848 76.6408 19.892 77.0008 21.14C77.2888 22.052 77.4328 23.276 77.4328 24.812L77.3968 27.62C77.3968 27.788 77.3008 27.98 77.1088 28.196C76.9168 28.412 76.7248 28.544 76.5328 28.592C76.4608 28.616 76.3528 28.628 76.2088 28.628C75.6568 28.628 75.0808 28.352 74.4808 27.8C73.8808 27.272 73.5688 26.744 73.5448 26.216L73.4728 24.344C73.4728 23.912 73.4488 23.288 73.4008 22.472C73.3528 21.632 73.2568 21.032 73.1128 20.672C72.9688 20.264 72.7888 19.952 72.5728 19.736C72.3568 19.52 72.1168 19.412 71.8528 19.412C71.6608 19.412 71.4448 19.496 71.2047 19.664C70.9887 19.832 70.7967 20.06 70.6287 20.348C70.1248 21.14 69.4648 22.7 68.6488 25.028C68.3848 25.868 67.9168 26.288 67.2447 26.288C67.1728 26.288 67.0168 26.264 66.7768 26.216C66.6328 26.168 66.3568 26.096 65.9488 26C65.5408 25.88 65.2168 25.7 64.9767 25.46C64.7608 25.22 64.6528 24.872 64.6528 24.416C64.6528 19.88 64.3768 16.124 63.8248 13.148C63.5607 11.66 63.4287 9.944 63.4287 8V5.588V4.328C63.4287 3.992 63.6087 3.704 63.9688 3.464C64.3288 3.224 64.7368 3.104 65.1928 3.104C65.5767 3.104 65.9007 3.188 66.1647 3.356C66.6448 3.644 66.9808 4.004 67.1728 4.436C67.3888 4.868 67.4967 5.408 67.4967 6.056V6.776ZM82.4036 20.384C82.1636 20.528 81.8156 20.6 81.3596 20.6C81.1916 20.6 80.9876 20.588 80.7476 20.564C80.5076 20.54 80.3036 20.54 80.1356 20.564C80.3276 21.356 80.7836 22.004 81.5036 22.508C82.2236 22.988 83.0276 23.228 83.9156 23.228C84.6836 23.228 85.3676 23.06 85.9676 22.724C86.8556 22.268 87.6236 21.728 88.2716 21.104C88.7276 20.648 89.1596 20.42 89.5676 20.42C89.8316 20.42 90.0596 20.552 90.2516 20.816C90.4436 21.128 90.5396 21.512 90.5396 21.968C90.5396 22.448 90.4436 22.82 90.2516 23.084C89.6276 24.044 88.8116 24.704 87.8036 25.064C86.8196 25.424 85.6676 25.604 84.3476 25.604C82.9796 25.604 81.6596 25.304 80.3876 24.704C79.1156 24.104 78.0236 23.288 77.1116 22.256C76.2236 21.2 75.6356 20.036 75.3476 18.764C75.1556 18.02 75.0596 17.288 75.0596 16.568C75.0596 15.44 75.3716 14.528 75.9956 13.832C76.6436 13.136 77.6756 12.476 79.0916 11.852C80.3876 11.3 81.5876 11.024 82.6916 11.024C83.4836 11.024 84.2516 11.144 84.9956 11.384C87.2996 12.104 88.4516 13.088 88.4516 14.336C88.4516 15.128 87.9836 16.088 87.0476 17.216C86.5916 17.744 86.0516 18.212 85.4276 18.62C84.8036 19.028 84.1916 19.4 83.5916 19.736C83.0156 20.048 82.6196 20.264 82.4036 20.384ZM83.9156 13.724C83.8916 13.604 83.7956 13.508 83.6276 13.436C83.4836 13.34 83.3996 13.28 83.3756 13.256C82.7276 13.208 82.0676 13.4 81.3956 13.832C80.7236 14.24 80.1596 14.768 79.7036 15.416C79.2716 16.064 79.0556 16.688 79.0556 17.288L79.0916 17.576C79.1156 17.672 79.2356 17.792 79.4516 17.936C79.6916 18.08 79.8356 18.128 79.8836 18.08C81.5876 16.808 82.8716 15.788 83.7356 15.02C83.8796 14.876 83.9516 14.612 83.9516 14.228C83.9516 13.988 83.9396 13.82 83.9156 13.724ZM95.4994 14.156C95.4994 14.204 95.5234 14.276 95.5714 14.372C95.6434 14.468 95.7034 14.552 95.7514 14.624L96.9034 12.968C97.3354 12.344 97.8754 11.972 98.5234 11.852C99.1954 11.708 99.7594 11.816 100.215 12.176C101.343 13.064 102.123 14.06 102.555 15.164L103.239 16.892L104.463 23.3C104.583 23.972 104.811 24.716 105.147 25.532C105.339 26.06 105.471 26.456 105.543 26.72L105.867 27.944C105.243 28.136 104.727 28.232 104.319 28.232C102.831 28.232 101.943 27.56 101.655 26.216C101.391 24.872 101.079 23.276 100.719 21.428L100.359 19.556C99.7834 17.804 99.1594 16.94 98.4874 16.964C97.8154 16.964 97.3234 17.228 97.0114 17.756C96.5554 18.5 96.2914 19.304 96.2194 20.168C96.1714 21.008 96.1474 22.124 96.1474 23.516C96.0274 24.044 95.8474 24.416 95.6074 24.632C95.3674 24.824 94.9954 24.92 94.4914 24.92C93.3394 24.92 92.7274 24.356 92.6554 23.228C92.5594 21.884 92.5114 20.372 92.5114 18.692C92.5114 18.212 92.4634 17.792 92.3674 17.432C92.2714 17.072 92.0554 16.892 91.7194 16.892C91.5754 16.892 91.3834 16.904 91.1434 16.928C90.9274 16.952 90.7594 16.952 90.6394 16.928C90.2074 16.832 89.8354 16.748 89.5234 16.676C89.2114 16.604 88.9234 16.496 88.6594 16.352C88.4194 16.184 88.3234 15.908 88.3714 15.524C88.4434 15.116 88.5754 14.732 88.7674 14.372C88.9354 14.132 89.1154 13.904 89.3074 13.688C89.5234 13.448 89.7994 13.184 90.1354 12.896C91.0234 12.128 91.9834 11.732 93.0154 11.708C93.7834 11.684 94.3354 11.924 94.6714 12.428C95.0314 12.932 95.3074 13.508 95.4994 14.156ZM117.978 12.248L119.274 12.068C120.21 11.924 120.846 11.84 121.182 11.816L122.046 11.744C122.334 11.72 122.694 11.696 123.126 11.672C123.558 11.648 124.05 11.636 124.602 11.636C125.13 11.636 125.514 11.648 125.754 11.672C126.594 11.744 127.206 12.02 127.59 12.5C127.998 12.98 128.238 13.7 128.31 14.66C128.214 14.66 128.07 14.648 127.878 14.624C127.686 14.6 127.53 14.576 127.41 14.552C126.738 14.432 126.126 14.372 125.574 14.372C124.926 14.372 124.302 14.456 123.702 14.624C122.166 15.104 120.198 15.608 117.798 16.136C117.342 16.256 116.982 16.448 116.718 16.712C116.478 16.952 116.322 17.3 116.25 17.756C116.106 18.668 115.926 19.58 115.71 20.492C115.542 21.332 115.41 22.028 115.314 22.58C115.29 22.772 115.278 23.024 115.278 23.336C115.278 23.624 115.278 23.828 115.278 23.948C115.662 24.02 116.058 24.056 116.466 24.056C117.258 24.056 118.23 23.9 119.382 23.588C121.494 23.084 123.618 22.544 125.754 21.968L129.714 20.96C130.962 20.648 131.946 20.372 132.666 20.132C134.226 19.7 135.354 19.4 136.05 19.232C136.338 19.184 136.554 19.16 136.698 19.16C137.298 19.16 137.694 19.4 137.886 19.88C137.958 20.048 137.994 20.216 137.994 20.384C137.994 20.672 137.898 20.948 137.706 21.212C137.514 21.476 137.25 21.692 136.914 21.86C136.458 22.052 135.834 22.256 135.042 22.472C132.738 23.144 130.698 23.78 128.922 24.38C125.466 25.484 122.898 26.264 121.218 26.72C120.546 26.912 119.538 27.08 118.194 27.224L116.862 27.404C116.046 27.5 115.314 27.224 114.666 26.576L114.018 25.928C113.226 25.184 112.614 24.536 112.182 23.984C111.87 23.576 111.738 23.012 111.786 22.292C111.858 21.452 112.014 20.168 112.254 18.44L112.398 17.288L112.506 16.208C111.786 15.992 111.222 15.728 110.814 15.416C110.43 15.08 110.226 14.552 110.202 13.832C110.97 13.736 111.546 13.688 111.93 13.688C112.362 13.664 112.71 13.556 112.974 13.364C113.238 13.172 113.442 12.86 113.586 12.428C113.85 11.564 114.294 10.292 114.918 8.612C115.11 7.988 115.35 7.292 115.638 6.524C115.758 6.14 115.842 5.66 115.89 5.084C115.89 4.652 115.986 4.316 116.178 4.076C116.394 3.812 116.73 3.608 117.186 3.464C119.37 2.792 122.214 2.276 125.718 1.916C126.87 1.796 128.01 1.76 129.138 1.808C130.722 1.808 131.898 2.408 132.666 3.608C132.882 3.896 132.99 4.28 132.99 4.76C132.99 4.976 132.966 5.132 132.918 5.228C132.774 5.564 132.558 5.852 132.27 6.092C132.006 6.308 131.67 6.416 131.262 6.416L129.858 6.452C129.186 6.5 128.694 6.524 128.382 6.524C127.71 6.524 127.254 6.404 127.014 6.164C126.678 5.828 126.258 5.66 125.754 5.66C125.61 5.66 125.37 5.684 125.034 5.732L121.47 6.56L120.03 6.92L117.978 12.248ZM142.566 22.652C142.47 22.532 142.326 22.4 142.134 22.256C141.942 22.088 141.774 21.944 141.63 21.824L140.766 23.012L139.578 24.668C139.314 25.028 138.978 25.304 138.57 25.496C138.186 25.664 137.778 25.748 137.346 25.748C136.794 25.748 136.29 25.616 135.834 25.352C135.378 25.064 135.042 24.656 134.826 24.128C134.778 23.984 134.754 23.852 134.754 23.732C134.754 23.324 134.862 22.964 135.078 22.652C136.182 21.164 137.25 19.868 138.282 18.764C138.474 18.572 138.666 18.38 138.858 18.188C139.074 17.972 139.182 17.828 139.182 17.756C139.182 17.708 139.086 17.588 138.894 17.396C138.726 17.18 138.558 16.928 138.39 16.64C138.27 16.424 137.97 16.028 137.49 15.452L136.698 14.372C136.554 14.156 136.434 13.88 136.338 13.544C136.242 13.208 136.17 12.968 136.122 12.824C136.29 12.776 136.542 12.68 136.878 12.536C137.574 12.224 138.066 12.116 138.354 12.212C139.026 12.476 139.602 12.764 140.082 13.076C140.586 13.364 140.922 13.736 141.09 14.192C141.162 14.384 141.246 14.612 141.342 14.876C141.438 15.116 141.522 15.284 141.594 15.38C141.666 15.476 141.738 15.524 141.81 15.524C141.906 15.524 142.062 15.416 142.278 15.2C142.518 14.984 142.806 14.696 143.142 14.336C143.406 14.072 143.718 13.832 144.078 13.616C144.438 13.376 144.798 13.16 145.158 12.968C145.518 12.776 145.866 12.68 146.202 12.68C146.586 12.68 146.946 12.788 147.282 13.004C147.618 13.22 147.966 13.532 148.326 13.94C148.374 14.036 148.398 14.132 148.398 14.228C148.398 14.372 148.362 14.528 148.29 14.696C148.242 14.864 148.182 14.996 148.11 15.092C147.51 15.788 146.754 16.508 145.842 17.252C145.746 17.324 145.638 17.408 145.518 17.504C145.422 17.6 145.314 17.696 145.194 17.792C144.834 18.08 144.546 18.332 144.33 18.548C144.114 18.74 144.006 18.908 144.006 19.052C144.006 19.22 144.186 19.52 144.546 19.952L145.41 21.104C146.058 22.136 146.502 22.964 146.742 23.588C146.814 23.756 146.85 23.972 146.85 24.236C146.85 24.428 146.838 24.608 146.814 24.776C146.79 24.944 146.778 25.124 146.778 25.316C146.442 25.268 146.166 25.244 145.95 25.244C145.878 25.244 145.674 25.22 145.338 25.172C145.002 25.124 144.714 25.028 144.474 24.884C144.162 24.668 143.874 24.392 143.61 24.056C143.37 23.696 143.226 23.492 143.178 23.444L142.566 22.652ZM148.056 31.76C148.056 25.256 148.044 20.384 148.02 17.144C148.02 16.52 148.116 16.04 148.308 15.704C148.524 15.344 148.92 15.056 149.496 14.84C150.48 14.48 151.728 13.964 153.24 13.292L155.112 12.464C155.424 12.344 155.856 12.308 156.408 12.356C157.824 12.452 158.844 12.812 159.468 13.436C160.092 14.036 160.404 14.9 160.404 16.028C160.404 16.652 160.284 17.468 160.044 18.476C159.804 19.46 159.24 20.744 158.352 22.328C157.56 23.768 156.444 24.488 155.004 24.488C154.5 24.488 153.996 24.404 153.492 24.236C153.156 24.14 152.94 24.092 152.844 24.092C152.34 24.092 152.124 24.512 152.196 25.352C152.268 27.128 152.304 28.868 152.304 30.572C152.328 30.98 152.34 31.568 152.34 32.336C152.34 32.792 152.328 33.14 152.304 33.38L152.268 34.388C152.268 35.012 152.076 35.516 151.692 35.9C151.308 36.284 150.804 36.476 150.18 36.476C149.628 36.476 149.148 36.272 148.74 35.864C148.332 35.456 148.128 34.976 148.128 34.424V31.76H148.056ZM152.052 17.9C151.932 17.996 151.836 18.164 151.764 18.404C151.716 18.62 151.68 18.848 151.656 19.088C151.632 19.304 151.596 19.508 151.548 19.7C151.572 19.724 151.596 19.736 151.62 19.736C151.668 19.736 151.704 19.748 151.728 19.772C151.728 19.916 151.74 20.168 151.764 20.528C151.788 20.888 151.824 21.212 151.872 21.5C151.944 21.836 152.064 22.1 152.232 22.292C152.4 22.46 152.592 22.544 152.808 22.544C153.096 22.544 153.384 22.412 153.672 22.148C155.256 20.804 156.168 18.848 156.408 16.28C156.408 16.16 156.3 15.98 156.084 15.74C155.868 15.5 155.748 15.392 155.724 15.416C155.1 15.8 154.452 16.208 153.78 16.64C153.108 17.048 152.532 17.468 152.052 17.9ZM164.808 10.736C164.88 10.976 164.892 11.348 164.844 11.852L164.412 16.1C164.532 16.004 164.712 15.668 164.952 15.092C165.192 14.492 165.42 14.012 165.636 13.652C165.852 13.268 166.02 13.016 166.14 12.896C167.268 11.816 168.54 11.168 169.956 10.952C171.372 10.736 172.932 10.64 174.636 10.664C174.804 10.664 174.984 10.736 175.176 10.88C175.392 11 175.5 11.108 175.5 11.204C175.5 11.276 175.428 11.408 175.284 11.6C175.14 11.768 175.008 11.876 174.888 11.924C173.448 12.404 172.176 12.956 171.072 13.58C169.992 14.204 169.056 15.02 168.264 16.028C166.392 18.404 165.312 20.852 165.024 23.372C164.952 24.044 164.748 24.5 164.412 24.74C164.076 24.956 163.608 25.064 163.008 25.064C162.336 25.064 161.736 24.776 161.208 24.2C160.68 23.624 160.416 22.988 160.416 22.292C160.44 19.748 160.452 15.932 160.452 10.844C160.452 10.148 160.608 9.668 160.92 9.404C161.232 9.116 161.796 8.972 162.612 8.972C163.212 8.972 163.716 9.14 164.124 9.476C164.556 9.812 164.784 10.232 164.808 10.736ZM178.469 20.384C178.229 20.528 177.881 20.6 177.425 20.6C177.257 20.6 177.053 20.588 176.813 20.564C176.573 20.54 176.369 20.54 176.201 20.564C176.393 21.356 176.849 22.004 177.569 22.508C178.289 22.988 179.093 23.228 179.981 23.228C180.749 23.228 181.433 23.06 182.033 22.724C182.921 22.268 183.689 21.728 184.337 21.104C184.793 20.648 185.225 20.42 185.633 20.42C185.897 20.42 186.125 20.552 186.317 20.816C186.509 21.128 186.605 21.512 186.605 21.968C186.605 22.448 186.509 22.82 186.317 23.084C185.693 24.044 184.877 24.704 183.869 25.064C182.885 25.424 181.733 25.604 180.413 25.604C179.045 25.604 177.725 25.304 176.453 24.704C175.181 24.104 174.089 23.288 173.177 22.256C172.289 21.2 171.701 20.036 171.413 18.764C171.221 18.02 171.125 17.288 171.125 16.568C171.125 15.44 171.437 14.528 172.061 13.832C172.709 13.136 173.741 12.476 175.157 11.852C176.453 11.3 177.653 11.024 178.757 11.024C179.549 11.024 180.317 11.144 181.061 11.384C183.365 12.104 184.517 13.088 184.517 14.336C184.517 15.128 184.049 16.088 183.113 17.216C182.657 17.744 182.117 18.212 181.493 18.62C180.869 19.028 180.257 19.4 179.657 19.736C179.081 20.048 178.685 20.264 178.469 20.384ZM179.981 13.724C179.957 13.604 179.861 13.508 179.693 13.436C179.549 13.34 179.465 13.28 179.441 13.256C178.793 13.208 178.133 13.4 177.461 13.832C176.789 14.24 176.225 14.768 175.769 15.416C175.337 16.064 175.121 16.688 175.121 17.288L175.157 17.576C175.181 17.672 175.301 17.792 175.517 17.936C175.757 18.08 175.901 18.128 175.949 18.08C177.653 16.808 178.937 15.788 179.801 15.02C179.945 14.876 180.017 14.612 180.017 14.228C180.017 13.988 180.005 13.82 179.981 13.724ZM192.141 21.752C191.853 22.928 191.373 23.84 190.701 24.488C190.029 25.136 189.237 25.46 188.325 25.46C187.149 25.46 185.973 24.956 184.797 23.948C185.709 23.468 186.285 23.18 186.525 23.084C187.149 22.796 187.641 22.4 188.001 21.896C188.385 21.392 188.577 20.828 188.577 20.204C188.577 19.988 188.565 19.82 188.541 19.7C188.469 19.172 188.349 18.608 188.181 18.008C188.013 17.384 187.905 16.976 187.857 16.784C187.737 16.376 187.581 15.764 187.389 14.948C187.245 14.348 187.113 13.736 186.993 13.112C186.873 12.488 186.813 11.936 186.813 11.456C186.813 10.664 186.981 9.944 187.317 9.296C187.677 8.624 188.277 7.988 189.117 7.388C189.477 7.124 189.885 6.896 190.341 6.704C190.821 6.512 191.277 6.404 191.709 6.38C192.021 6.332 192.369 6.392 192.753 6.56C193.161 6.728 193.413 6.932 193.509 7.172C193.605 7.388 193.569 7.7 193.401 8.108C193.233 8.492 193.029 8.78 192.789 8.972C191.397 10.004 190.749 11.156 190.845 12.428C190.893 13.148 191.085 14.204 191.421 15.596C191.661 16.484 191.829 17.252 191.925 17.9C191.949 18.092 192.009 18.476 192.105 19.052C192.225 19.628 192.285 20.156 192.285 20.636C192.285 21.068 192.237 21.44 192.141 21.752ZM196.236 26.792C194.22 26.792 192.936 25.928 192.384 24.2C192.576 24.2 192.828 24.212 193.14 24.236C193.476 24.236 193.752 24.26 193.968 24.308C194.304 24.356 194.544 24.38 194.688 24.38C195.768 24.38 196.668 23.9 197.388 22.94C197.892 22.244 198.144 21.536 198.144 20.816C198.144 20.336 198.024 19.868 197.784 19.412C197.256 18.476 196.608 17.444 195.84 16.316C195.336 15.572 194.88 14.864 194.472 14.192C193.992 13.424 193.752 12.572 193.752 11.636C193.752 10.772 193.992 10.016 194.472 9.368C194.976 8.696 195.708 8.276 196.668 8.108L197.82 7.892C199.068 7.652 200.004 7.532 200.628 7.532C201.66 7.532 202.572 7.772 203.364 8.252C203.532 8.372 203.7 8.588 203.868 8.9C204.06 9.188 204.204 9.416 204.3 9.584C204.132 9.656 203.892 9.776 203.58 9.944C203.292 10.088 203.04 10.172 202.824 10.196C202.488 10.244 201.984 10.268 201.312 10.268C200.664 10.268 200.172 10.28 199.836 10.304C199.068 10.376 198.456 10.64 198 11.096C197.568 11.528 197.352 12.056 197.352 12.68C197.352 13.16 197.496 13.652 197.784 14.156C198.432 15.236 199.332 16.472 200.484 17.864C201.348 18.944 201.78 20.06 201.78 21.212C201.78 21.836 201.636 22.496 201.348 23.192C200.364 25.592 198.66 26.792 196.236 26.792ZM204.943 8.504C203.527 8.648 202.363 8.072 201.451 6.776C202.195 6.224 202.927 5.948 203.647 5.948C204.487 5.948 205.183 6.332 205.735 7.1C205.879 7.268 205.951 7.472 205.951 7.712C205.951 7.928 205.855 8.108 205.663 8.252C205.471 8.396 205.231 8.48 204.943 8.504ZM206.419 16.46C206.395 17.036 206.335 17.9 206.239 19.052L206.023 21.644C206.023 21.956 206.059 22.292 206.131 22.652C206.203 23.012 206.251 23.252 206.275 23.372C206.323 23.756 206.239 24.092 206.023 24.38C205.807 24.644 205.531 24.776 205.195 24.776C205.051 24.776 204.943 24.764 204.871 24.74C204.055 24.5 203.383 24.128 202.855 23.624C202.327 23.096 202.075 22.4 202.099 21.536C202.123 21.152 202.135 20.576 202.135 19.808C202.135 18.944 202.123 18.296 202.099 17.864C202.099 17.528 202.087 17.12 202.063 16.64C202.063 16.16 202.075 15.596 202.099 14.948C202.123 14.636 202.195 14.3 202.315 13.94C202.435 13.58 202.567 13.388 202.711 13.364C203.095 13.292 203.527 13.256 204.007 13.256C204.631 13.256 205.087 13.364 205.375 13.58C205.591 13.748 205.771 13.976 205.915 14.264C206.059 14.552 206.215 14.936 206.383 15.416C206.527 15.8 206.647 16.088 206.743 16.28L206.419 16.46ZM214.269 23.588C213.525 24.044 212.673 24.272 211.713 24.272C210.657 24.272 209.637 24.008 208.653 23.48C207.693 22.928 206.925 22.148 206.349 21.14C205.773 20.132 205.533 18.98 205.629 17.684L205.809 16.82C205.953 15.956 206.073 15.32 206.169 14.912C206.385 14.024 206.817 13.4 207.465 13.04C208.113 12.68 208.977 12.392 210.057 12.176C210.753 12.032 211.437 11.96 212.109 11.96C214.221 11.96 215.997 12.668 217.437 14.084C218.205 14.852 218.589 15.788 218.589 16.892C218.589 17.972 218.193 19.136 217.401 20.384C216.489 21.8 215.445 22.868 214.269 23.588ZM211.245 13.796C210.861 14.732 210.453 15.896 210.021 17.288L209.661 18.368L209.913 18.476C209.913 18.644 209.913 18.908 209.913 19.268C209.937 19.604 209.985 19.892 210.057 20.132C210.321 20.876 210.621 21.332 210.957 21.5C211.101 21.572 211.305 21.536 211.569 21.392C211.857 21.248 212.109 21.08 212.325 20.888C212.661 20.6 213.201 20 213.945 19.088C214.497 18.464 214.773 17.72 214.773 16.856C214.773 16.112 214.557 15.44 214.125 14.84C213.717 14.24 213.141 13.832 212.397 13.616C212.325 13.592 212.193 13.58 212.001 13.58C211.545 13.58 211.293 13.652 211.245 13.796ZM224.205 14.156C224.205 14.204 224.229 14.276 224.277 14.372C224.349 14.468 224.409 14.552 224.457 14.624L225.609 12.968C226.041 12.344 226.581 11.972 227.229 11.852C227.901 11.708 228.465 11.816 228.921 12.176C230.049 13.064 230.829 14.06 231.261 15.164L231.945 16.892L233.169 23.3C233.289 23.972 233.517 24.716 233.853 25.532C234.045 26.06 234.177 26.456 234.249 26.72L234.573 27.944C233.949 28.136 233.433 28.232 233.025 28.232C231.537 28.232 230.649 27.56 230.361 26.216C230.097 24.872 229.785 23.276 229.425 21.428L229.065 19.556C228.489 17.804 227.865 16.94 227.193 16.964C226.521 16.964 226.029 17.228 225.717 17.756C225.261 18.5 224.997 19.304 224.925 20.168C224.877 21.008 224.853 22.124 224.853 23.516C224.733 24.044 224.553 24.416 224.313 24.632C224.073 24.824 223.701 24.92 223.197 24.92C222.045 24.92 221.433 24.356 221.361 23.228C221.265 21.884 221.217 20.372 221.217 18.692C221.217 18.212 221.169 17.792 221.073 17.432C220.977 17.072 220.761 16.892 220.425 16.892C220.281 16.892 220.089 16.904 219.849 16.928C219.633 16.952 219.465 16.952 219.345 16.928C218.913 16.832 218.541 16.748 218.229 16.676C217.917 16.604 217.629 16.496 217.365 16.352C217.125 16.184 217.029 15.908 217.077 15.524C217.149 15.116 217.281 14.732 217.473 14.372C217.641 14.132 217.821 13.904 218.013 13.688C218.229 13.448 218.505 13.184 218.841 12.896C219.729 12.128 220.689 11.732 221.721 11.708C222.489 11.684 223.041 11.924 223.377 12.428C223.737 12.932 224.013 13.508 224.205 14.156Z" fill="white"/>
</svg>
